<svg width="20" height="20" viewBox="0 0 20 20" fill="none" xmlns="http://www.w3.org/2000/svg">
<g clip-path="url(#clip0_134_42)">
<path d="M16.359 0H3.63268C3.41485 0.00250795 3.20517 0.0831539 3.04181 0.227256C3.69007 0.455331 4.26042 0.862444 4.68677 1.40141C5.11312 1.94038 5.378 2.58913 5.45072 3.27248C5.46462 3.39329 5.46462 3.51529 5.45072 3.63609V19.0895C5.45029 19.2634 5.49973 19.4337 5.59318 19.5803C5.68663 19.7269 5.82017 19.8437 5.97796 19.9167C6.13612 19.9895 6.31186 20.0154 6.48428 19.9912C6.65671 19.967 6.81857 19.8938 6.95061 19.7804L9.54133 17.5623L12.132 19.7804C12.2967 19.9212 12.5062 19.9986 12.7229 19.9986C12.9396 19.9986 13.1491 19.9212 13.3138 19.7804L15.9045 17.5623L18.4952 19.7804C18.6599 19.9212 18.8694 19.9985 19.0861 19.9985C19.2176 19.9976 19.3475 19.9697 19.4679 19.9167C19.6257 19.8437 19.7592 19.7269 19.8526 19.5803C19.9461 19.4337 19.9955 19.2634 19.9951 19.0895V3.63609C19.9951 2.67174 19.612 1.74689 18.9301 1.06499C18.2482 0.383087 17.3234 0 16.359 0ZM15.45 12.7263H9.99584C9.75475 12.7263 9.52354 12.6306 9.35306 12.4601C9.18259 12.2896 9.08682 12.0584 9.08682 11.8173C9.08682 11.5762 9.18259 11.345 9.35306 11.1745C9.52354 11.0041 9.75475 10.9083 9.99584 10.9083H15.45C15.6911 10.9083 15.9223 11.0041 16.0928 11.1745C16.2632 11.345 16.359 11.5762 16.359 11.8173C16.359 12.0584 16.2632 12.2896 16.0928 12.4601C15.9223 12.6306 15.6911 12.7263 15.45 12.7263ZM15.45 9.09023H9.99584C9.75475 9.09023 9.52354 8.99446 9.35306 8.82399C9.18259 8.65351 9.08682 8.4223 9.08682 8.18121C9.08682 7.94012 9.18259 7.70891 9.35306 7.53843C9.52354 7.36796 9.75475 7.27219 9.99584 7.27219H15.45C15.6911 7.27219 15.9223 7.36796 16.0928 7.53843C16.2632 7.70891 16.359 7.94012 16.359 8.18121C16.359 8.4223 16.2632 8.65351 16.0928 8.82399C15.9223 8.99446 15.6911 9.09023 15.45 9.09023ZM15.45 5.45414H9.99584C9.75475 5.45414 9.52354 5.35837 9.35306 5.18789C9.18259 5.01742 9.08682 4.78621 9.08682 4.54512C9.08682 4.30403 9.18259 4.07282 9.35306 3.90234C9.52354 3.73187 9.75475 3.63609 9.99584 3.63609H15.45C15.6911 3.63609 15.9223 3.73187 16.0928 3.90234C16.2632 4.07282 16.359 4.30403 16.359 4.54512C16.359 4.78621 16.2632 5.01742 16.0928 5.18789C15.9223 5.35837 15.6911 5.45414 15.45 5.45414ZM3.63268 3.63609V10.9083H0.905605C0.664517 10.9083 0.433304 10.8125 0.262829 10.642C0.0923538 10.4716 -0.00341797 10.2403 -0.00341797 9.99926V3.27248C0.0447996 2.79031 0.282586 2.34704 0.657631 2.04018C1.03268 1.73333 1.51426 1.58802 1.99643 1.63624C2.47861 1.68446 2.92188 1.92225 3.22874 2.29729C3.53559 2.67234 3.68089 3.15392 3.63268 3.63609Z" fill="#152A69"/>
</g>
<defs>
<clipPath id="clip0_134_42">
<rect width="20" height="20" fill="white"/>
</clipPath>
</defs>
</svg>
