<svg width="20" height="20" viewBox="0 0 20 20" fill="none" xmlns="http://www.w3.org/2000/svg">
<g clip-path="url(#clip0_134_5)">
<path fill-rule="evenodd" clip-rule="evenodd" d="M7.20133 4.01976H19.1094L12.0366 8.8684L7.22563 5.5703C7.40879 5.07983 7.41034 4.52544 7.20133 4.01976ZM4.08698 6.83394L5.82269 5.77709C6.33779 5.46347 6.50876 4.79432 6.2072 4.27201L4.6402 1.55788C4.47945 1.27941 4.23612 1.10026 3.9225 1.02946C3.60883 0.958617 3.31221 1.0158 3.04735 1.19817L0.189606 3.16573C-1.17068 7.95869 4.94218 18.3353 9.63041 19.5176L12.7632 18.0265C13.0536 17.8884 13.2514 17.66 13.3469 17.353C13.4424 17.0459 13.4089 16.7457 13.2481 16.4672L11.6811 13.7531C11.3796 13.2308 10.7146 13.0442 10.1854 13.3335L8.40234 14.3083C6.63897 12.74 4.56349 9.1452 4.08698 6.83394ZM19.9743 4.64333L12.3194 9.89102C12.1403 10.0133 11.9102 10.0037 11.7437 9.8841L6.66185 6.40032C6.56399 6.48854 6.45811 6.56742 6.34558 6.63594L5.24776 7.30433C5.82453 9.16573 7.25169 11.6376 8.57532 13.0678L9.70309 12.4513C10.7108 11.9004 11.9777 12.2558 12.5518 13.2503L13.5236 14.9335H19.184C19.6309 14.9335 19.9966 14.5678 19.9966 14.1209V4.83236C19.9966 4.76869 19.9891 4.70524 19.9743 4.64333Z" fill="#EC7E00"/>
</g>
<defs>
<clipPath id="clip0_134_5">
<rect width="20" height="20" fill="white"/>
</clipPath>
</defs>
</svg>
