<svg width="20" height="20" viewBox="0 0 20 20" fill="none" xmlns="http://www.w3.org/2000/svg">
<path d="M12.0498 2.71659L12.7832 1.98325C13.6498 1.11659 15.1582 1.11659 16.0248 1.98325L16.6165 2.57492C16.83 2.78657 16.9994 3.0384 17.115 3.31588C17.2306 3.59336 17.2902 3.89098 17.2902 4.19159C17.2902 4.49219 17.2306 4.78981 17.115 5.06729C16.9994 5.34477 16.83 5.5966 16.6165 5.80825L15.8832 6.54159L12.0498 2.70825V2.71659ZM11.1665 3.59992L3.57484 11.1916C3.33317 11.4333 3.18317 11.7499 3.15817 12.0916L2.93317 14.5333C2.90817 14.8416 3.0165 15.1416 3.23317 15.3666C3.43317 15.5666 3.6915 15.6749 3.9665 15.6749H4.05817L6.49984 15.4499C6.8415 15.4166 7.15817 15.2666 7.39984 15.0249L14.9915 7.43325L11.1582 3.59992H11.1665ZM18.9582 18.3333C18.9582 17.9916 18.6748 17.7083 18.3332 17.7083H1.6665C1.32484 17.7083 1.0415 17.9916 1.0415 18.3333C1.0415 18.6749 1.32484 18.9583 1.6665 18.9583H18.3332C18.6748 18.9583 18.9582 18.6749 18.9582 18.3333Z" fill="#4A748A"/>
</svg>
