<svg width="12" height="12" viewBox="0 0 12 12" fill="none" xmlns="http://www.w3.org/2000/svg">
<g clip-path="url(#clip0_41_1461)">
<path d="M8.74292 1.42342e-05C8.95855 1.42531e-05 9.1723 0.0843897 9.33167 0.253139C9.40492 0.330395 9.46221 0.421339 9.50025 0.520765C9.5383 0.620193 9.55636 0.726148 9.5534 0.832564C9.55044 0.938981 9.52651 1.04377 9.483 1.14093C9.43948 1.23808 9.37723 1.3257 9.2998 1.39876L4.43605 6.00001L9.2998 10.5994C9.45577 10.7472 9.54672 10.9508 9.5527 11.1656C9.55867 11.3804 9.47918 11.5888 9.33167 11.745C9.18388 11.901 8.98024 11.9919 8.76545 11.9979C8.55067 12.0039 8.34228 11.9244 8.18605 11.7769L2.6998 6.58876C2.53855 6.43501 2.44667 6.22314 2.44667 6.00001C2.44667 5.77689 2.53855 5.56501 2.6998 5.41126L8.18605 0.221265C8.33625 0.0785464 8.53573 -0.000708669 8.74292 1.42342e-05Z" fill="#4A748A"/>
</g>
<defs>
<clipPath id="clip0_41_1461">
<rect width="12" height="12" fill="white" transform="translate(12 12) rotate(-180)"/>
</clipPath>
</defs>
</svg>
