<svg width="12" height="12" viewBox="0 0 12 12" fill="none" xmlns="http://www.w3.org/2000/svg">
<g clip-path="url(#clip0_41_1482)">
<path d="M6.00214 11.9519C5.8893 11.9525 5.77745 11.9309 5.67299 11.8882C5.56854 11.8456 5.47353 11.7827 5.39342 11.7032L0.249311 6.55913C0.0896288 6.39849 0 6.18119 0 5.95469C0 5.72819 0.0896288 5.5109 0.249311 5.35026L5.39342 0.206156C5.55743 0.0656994 5.7684 -0.00769504 5.98418 0.000639397C6.19995 0.00897384 6.40464 0.0984229 6.55733 0.251112C6.71002 0.403802 6.79947 0.608485 6.8078 0.82426C6.81613 1.04003 6.74274 1.25101 6.60228 1.41502L2.0669 5.95041L6.60228 10.4858C6.72267 10.6052 6.80495 10.7576 6.83872 10.9238C6.87249 11.09 6.85622 11.2624 6.79199 11.4193C6.72775 11.5762 6.61842 11.7106 6.47783 11.8054C6.33724 11.9002 6.1717 11.9512 6.00214 11.9519Z" fill="#282828"/>
<path d="M11.1462 11.9519C11.0333 11.9525 10.9215 11.9309 10.817 11.8882C10.7126 11.8456 10.6176 11.7827 10.5375 11.7032L5.39335 6.55913C5.23367 6.39849 5.14404 6.18119 5.14404 5.95469C5.14404 5.72819 5.23367 5.5109 5.39335 5.35026L10.5375 0.206156C10.7015 0.0656994 10.9124 -0.00769504 11.1282 0.000639397C11.344 0.00897384 11.5487 0.0984229 11.7014 0.251112C11.8541 0.403802 11.9435 0.608485 11.9518 0.82426C11.9602 1.04003 11.8868 1.25101 11.7463 1.41502L7.21094 5.95041L11.7463 10.4858C11.8667 10.6052 11.949 10.7576 11.9828 10.9238C12.0165 11.09 12.0003 11.2624 11.936 11.4193C11.8718 11.5762 11.7625 11.7106 11.6219 11.8054C11.4813 11.9002 11.3157 11.9512 11.1462 11.9519Z" fill="#282828"/>
</g>
<defs>
<clipPath id="clip0_41_1482">
<rect width="12" height="12" fill="white"/>
</clipPath>
</defs>
</svg>
