<svg width="20" height="20" viewBox="0 0 20 20" fill="none" xmlns="http://www.w3.org/2000/svg">
<g clip-path="url(#clip0_115_974)">
<path d="M16.3748 20H4.49985C3.68735 20 2.87485 19.5625 2.43735 18.875C1.93735 18.1875 1.87485 17.3125 2.18735 16.5C3.43735 13.3125 6.74985 11.1875 10.4373 11.1875C14.1248 11.1875 17.4373 13.3125 18.6873 16.5C18.9998 17.25 18.9373 18.1875 18.4373 18.875C17.9998 19.5625 17.1873 20 16.3748 20ZM10.4373 10C7.68735 10 5.43735 7.75 5.43735 5C5.43735 2.25 7.68735 0 10.4373 0C13.1873 0 15.4373 2.25 15.4373 5C15.4373 7.75 13.1873 10 10.4373 10Z" fill="#4A748A"/>
</g>
<defs>
<clipPath id="clip0_115_974">
<rect width="20" height="20" fill="white"/>
</clipPath>
</defs>
</svg>
