<svg width="12" height="12" viewBox="0 0 12 12" fill="none" xmlns="http://www.w3.org/2000/svg">
<g clip-path="url(#clip0_41_1465)">
<path d="M3.25708 12C3.04145 12 2.8277 11.9156 2.66833 11.7469C2.59508 11.6696 2.5378 11.5787 2.49975 11.4792C2.4617 11.3798 2.44364 11.2739 2.4466 11.1674C2.44956 11.061 2.47349 10.9562 2.517 10.8591C2.56052 10.7619 2.62277 10.6743 2.7002 10.6012L7.56395 5.99999L2.7002 1.40061C2.54423 1.25282 2.45328 1.04918 2.4473 0.834391C2.44133 0.619604 2.52082 0.411222 2.66833 0.254986C2.81612 0.0990159 3.01976 0.00806023 3.23455 0.00208416C3.44933 -0.00389191 3.65772 0.0755999 3.81395 0.223111L9.3002 5.41124C9.46145 5.56499 9.55333 5.77686 9.55333 5.99999C9.55333 6.22311 9.46145 6.43499 9.3002 6.58874L3.81395 11.7787C3.66375 11.9215 3.46427 12.0007 3.25708 12Z" fill="#4A748A"/>
</g>
<defs>
<clipPath id="clip0_41_1465">
<rect width="12" height="12" fill="white"/>
</clipPath>
</defs>
</svg>
