<svg width="12" height="12" viewBox="0 0 12 12" fill="none" xmlns="http://www.w3.org/2000/svg">
<g clip-path="url(#clip0_41_1496)">
<path d="M5.99786 11.9519C6.1107 11.9525 6.22255 11.9309 6.32701 11.8882C6.43146 11.8456 6.52647 11.7827 6.60658 11.7032L11.7507 6.55913C11.9104 6.39849 12 6.18119 12 5.95469C12 5.72819 11.9104 5.5109 11.7507 5.35026L6.60658 0.206156C6.44257 0.0656994 6.2316 -0.00769504 6.01582 0.000639397C5.80005 0.00897384 5.59536 0.0984229 5.44267 0.251112C5.28998 0.403802 5.20053 0.608485 5.1922 0.82426C5.18387 1.04003 5.25726 1.25101 5.39772 1.41502L9.9331 5.95041L5.39772 10.4858C5.27733 10.6052 5.19505 10.7576 5.16128 10.9238C5.12751 11.09 5.14378 11.2624 5.20801 11.4193C5.27225 11.5762 5.38158 11.7106 5.52217 11.8054C5.66276 11.9002 5.8283 11.9512 5.99786 11.9519Z" fill="#282828"/>
<path d="M0.853819 11.9519C0.966652 11.9525 1.0785 11.9309 1.18296 11.8882C1.28742 11.8456 1.38243 11.7827 1.46254 11.7032L6.60665 6.55913C6.76633 6.39849 6.85596 6.18119 6.85596 5.95469C6.85596 5.72819 6.76633 5.5109 6.60665 5.35026L1.46254 0.206156C1.29852 0.0656994 1.08755 -0.00769504 0.871778 0.000639397C0.656003 0.00897384 0.451319 0.0984229 0.298629 0.251112C0.145939 0.403802 0.0564914 0.608485 0.0481567 0.82426C0.0398226 1.04003 0.113215 1.25101 0.253672 1.41502L4.78906 5.95041L0.253672 10.4858C0.133282 10.6052 0.0510006 10.7576 0.0172338 10.9238C-0.0165329 11.09 -0.000269413 11.2624 0.0639682 11.4193C0.128206 11.5762 0.237533 11.7106 0.378124 11.8054C0.518716 11.9002 0.684258 11.9512 0.853819 11.9519Z" fill="#282828"/>
</g>
<defs>
<clipPath id="clip0_41_1496">
<rect width="12" height="12" fill="white" transform="matrix(-1 0 0 1 12 0)"/>
</clipPath>
</defs>
</svg>
