<svg width="16" height="16" viewBox="0 0 16 16" fill="none" xmlns="http://www.w3.org/2000/svg">
<path d="M12.207 14.293L5.91412 8.0001L12.207 1.7072C12.3926 1.51927 12.4964 1.26552 12.4956 1.00136C12.4948 0.737195 12.3895 0.48408 12.2027 0.297288C12.0159 0.110495 11.7628 0.00520102 11.4986 0.00439914C11.2345 0.00359726 10.9807 0.107353 10.7928 0.293008L3.7928 7.29301C3.60528 7.48054 3.49992 7.73489 3.49992 8.0001C3.49992 8.26531 3.60528 8.51966 3.7928 8.7072L10.7928 15.7072C10.9807 15.8929 11.2345 15.9966 11.4986 15.9958C11.7628 15.995 12.0159 15.8897 12.2027 15.7029C12.3895 15.5161 12.4948 15.263 12.4956 14.9988C12.4964 14.7347 12.3926 14.4809 12.207 14.293Z" fill="white"/>
</svg>
